<svg xmlns="http://www.w3.org/2000/svg" xmlns:xlink="http://www.w3.org/1999/xlink" width="500" zoomAndPan="magnify" viewBox="0 0 375 374.999991" height="500" preserveAspectRatio="xMidYMid meet" version="1.0"><defs><g/><clipPath id="a3659d4582"><path d="M 71 76.890625 L 304 76.890625 L 304 184 L 71 184 Z M 71 76.890625 " clip-rule="nonzero"/></clipPath></defs><g fill="#000000" fill-opacity="1"><g transform="translate(67.413324, 312.470977)"><g><path d="M 15.46875 0.265625 L 12.796875 0 L 9.609375 -0.53125 L 8.53125 -3.203125 L 8.53125 -6.140625 L 9.609375 -8.265625 L 9.328125 -12 L 9.609375 -13.609375 L 9.875 -15.46875 L 10.40625 -18.40625 L 11.46875 -20.53125 L 11.734375 -22.140625 L 12 -24 L 12.265625 -27.46875 L 12.53125 -29.609375 L 13.609375 -33.34375 L 14.671875 -36.015625 L 14.671875 -38.40625 L 15.203125 -40.015625 L 15.46875 -43.75 L 16.265625 -46.140625 L 16.265625 -48.28125 L 16.796875 -49.875 L 16.796875 -51.75 L 17.875 -54.953125 L 17.875 -58.6875 L 18.40625 -62.15625 L 19.734375 -65.890625 L 20.53125 -70.15625 L 20.265625 -72.015625 L 20.8125 -76.015625 L 21.609375 -77.890625 L 21.609375 -81.625 L 22.671875 -89.09375 L 23.734375 -92.5625 L 23.734375 -94.421875 L 24.546875 -98.15625 L 24.8125 -101.625 L 25.875 -105.09375 L 26.9375 -108.296875 L 27.46875 -110.15625 L 28.28125 -113.359375 L 28.28125 -116.5625 L 28.8125 -120.296875 L 29.609375 -122.171875 L 30.140625 -125.90625 L 30.671875 -127.765625 L 31.203125 -131.234375 L 30.9375 -132.828125 L 31.203125 -134.703125 L 31.203125 -136.5625 L 31.46875 -138.4375 L 32.8125 -142.703125 L 32.8125 -144.5625 L 33.609375 -146.171875 L 33.875 -149.90625 L 34.671875 -153.375 L 35.203125 -154.96875 L 35.46875 -157.109375 L 35.75 -160.578125 L 36.015625 -163.515625 L 37.078125 -165.375 L 37.078125 -167.515625 L 38.140625 -172.3125 L 38.671875 -175.78125 L 39.203125 -177.109375 L 38.9375 -180.3125 L 39.203125 -182.171875 L 39.75 -185.375 L 42.9375 -186.71875 L 56.015625 -187.25 L 65.609375 -186.984375 L 72.546875 -186.71875 L 103.765625 -186.71875 L 108.03125 -186.453125 L 111.234375 -186.453125 L 114.703125 -185.375 L 115.5 -183.25 L 114.96875 -181.375 L 114.96875 -178.4375 L 114.421875 -174.984375 L 114.421875 -173.640625 L 113.625 -169.109375 L 112.828125 -165.640625 L 112.5625 -164.046875 L 112.5625 -162.171875 L 111.5 -157.375 L 110.6875 -151.765625 L 108.296875 -150.4375 L 105.890625 -150.703125 L 101.625 -150.171875 L 96.5625 -150.703125 L 92.828125 -150.96875 L 85.890625 -150.703125 L 74.953125 -150.4375 L 72.28125 -150.4375 L 71.75 -148.296875 L 71.484375 -145.375 L 71.21875 -143.5 L 70.421875 -139.5 L 69.625 -135.765625 L 69.625 -134.4375 L 68.546875 -128.03125 L 67.484375 -125.90625 L 67.484375 -123.765625 L 66.953125 -121.890625 L 66.6875 -120.296875 L 66.6875 -118.4375 L 66.15625 -115.234375 L 65.34375 -112.5625 L 68.28125 -112.296875 L 80.015625 -112.03125 L 83.21875 -112.296875 L 86.953125 -112.5625 L 89.890625 -112.5625 L 93.625 -112.296875 L 94.421875 -109.359375 L 94.15625 -107.234375 L 93.359375 -105.09375 L 93.359375 -102.953125 L 92.296875 -99.21875 L 92.296875 -97.890625 L 91.484375 -94.6875 L 91.21875 -93.09375 L 90.953125 -91.21875 L 90.15625 -87.75 L 90.15625 -84.5625 L 89.09375 -81.09375 L 88.296875 -77.359375 L 86.6875 -74.15625 L 84.015625 -74.15625 L 81.09375 -74.421875 L 71.484375 -74.421875 L 65.34375 -73.890625 L 58.953125 -74.421875 L 58.140625 -70.15625 L 57.609375 -67.484375 L 57.078125 -64.015625 L 56.28125 -60.28125 L 56.015625 -58.953125 L 54.953125 -56.015625 L 55.21875 -54.40625 L 54.40625 -50.953125 L 53.609375 -46.9375 L 52.8125 -43.75 L 51.75 -40.28125 L 52.015625 -38.40625 L 51.484375 -36.546875 L 51.21875 -32.8125 L 51.21875 -31.203125 L 50.671875 -27.46875 L 50.140625 -24.265625 L 49.875 -22.40625 L 48.28125 -19.203125 L 48.015625 -17.34375 L 48.015625 -15.734375 L 47.75 -13.875 L 48.015625 -12 L 47.21875 -8.796875 L 46.671875 -5.59375 L 45.609375 -2.140625 L 42.9375 -0.265625 L 41.078125 -0.53125 L 39.203125 -0.265625 L 32.8125 0.265625 L 27.46875 0 L 25.875 0.265625 Z M 15.46875 0.265625 "/></g></g></g><g fill="#000000" fill-opacity="1"><g transform="translate(154.080865, 312.470977)"><g><path d="M 101.359375 16.265625 L 97.625 15.203125 L 94.421875 12.265625 L 92.828125 11.203125 L 89.625 7.734375 L 87.21875 5.328125 L 86.421875 4 L 85.359375 2.140625 L 83.75 -0.53125 L 83.21875 -1.59375 L 82.6875 -2.40625 L 79.75 -1.328125 L 76.015625 -0.265625 L 70.953125 1.59375 L 65.078125 2.671875 L 58.953125 2.40625 L 55.484375 2.671875 L 53.078125 2.140625 L 50.40625 2.140625 L 47.21875 1.59375 L 42.9375 0.53125 L 39.484375 -0.265625 L 37.875 -1.0625 L 36.015625 -1.859375 L 33.078125 -3.203125 L 31.203125 -4.796875 L 29.609375 -6.140625 L 26.671875 -8.796875 L 25.34375 -9.875 L 24.546875 -11.46875 L 23.734375 -12.53125 L 19.734375 -18.140625 L 18.9375 -20 L 16.796875 -27.46875 L 15.46875 -31.46875 L 15.46875 -35.203125 L 14.671875 -40.8125 L 14.140625 -44.28125 L 14.140625 -51.21875 L 14.40625 -54.6875 L 13.875 -56.28125 L 14.40625 -57.875 L 14.9375 -61.078125 L 14.9375 -66.953125 L 15.734375 -69.625 L 16 -73.359375 L 16.796875 -76.546875 L 16.796875 -77.625 L 17.609375 -85.09375 L 18.40625 -88.5625 L 18.40625 -92.015625 L 19.203125 -95.75 L 20 -99.765625 L 20.265625 -101.890625 L 20.8125 -103.765625 L 21.078125 -105.359375 L 21.875 -106.953125 L 22.140625 -110.15625 L 22.9375 -111.765625 L 22.9375 -113.625 L 23.46875 -116.828125 L 24.546875 -120.03125 L 25.078125 -121.890625 L 25.34375 -124.03125 L 25.875 -125.90625 L 26.40625 -127.5 L 26.40625 -129.09375 L 26.9375 -130.96875 L 26.9375 -132.5625 L 27.734375 -136.03125 L 29.875 -141.90625 L 30.140625 -143.5 L 32.015625 -149.375 L 32.546875 -150.96875 L 34.140625 -154.703125 L 36.546875 -160.84375 L 37.34375 -161.90625 L 40.546875 -168.046875 L 42.9375 -170.984375 L 45.875 -173.90625 L 47.484375 -175.25 L 48.8125 -176.578125 L 51.75 -179.25 L 54.6875 -181.109375 L 56.28125 -182.171875 L 58.6875 -183.25 L 61.34375 -185.109375 L 63.21875 -185.90625 L 66.421875 -186.984375 L 69.34375 -187.515625 L 72.015625 -188.046875 L 74.15625 -188.84375 L 76.8125 -189.109375 L 78.6875 -189.375 L 82.15625 -189.921875 L 88.296875 -189.921875 L 89.890625 -189.640625 L 93.890625 -189.375 L 95.484375 -189.375 L 99.765625 -188.578125 L 101.359375 -188.046875 L 105.359375 -186.984375 L 107.5 -185.90625 L 110.15625 -184.84375 L 112.5625 -184.046875 L 114.421875 -183.25 L 116.296875 -181.90625 L 118.15625 -180.84375 L 119.765625 -179.515625 L 121.359375 -177.90625 L 122.96875 -176.578125 L 124.5625 -173.90625 L 126.4375 -170.703125 L 128.296875 -167.25 L 128.5625 -165.109375 L 129.09375 -163.234375 L 130.4375 -160.3125 L 130.4375 -156.84375 L 130.96875 -155.234375 L 130.703125 -151.5 L 131.234375 -149.640625 L 130.96875 -142.171875 L 130.96875 -140.5625 L 130.703125 -127.234375 L 130.4375 -125.625 L 130.171875 -123.765625 L 129.90625 -122.171875 L 129.09375 -116.5625 L 129.359375 -112.296875 L 128.828125 -110.6875 L 128.296875 -106.953125 L 128.03125 -105.359375 L 128.03125 -103.5 L 127.5 -100.03125 L 126.96875 -98.15625 L 126.96875 -96.296875 L 126.703125 -94.421875 L 126.171875 -89.890625 L 125.359375 -85.359375 L 125.09375 -82.953125 L 124.5625 -80.546875 L 123.765625 -76.8125 L 123.234375 -74.953125 L 122.4375 -71.484375 L 122.703125 -69.625 L 122.171875 -68.015625 L 122.171875 -66.421875 L 120.296875 -58.421875 L 118.4375 -51.21875 L 117.625 -49.609375 L 117.625 -48.015625 L 115.765625 -43.21875 L 114.15625 -37.609375 L 111.765625 -32.8125 L 110.15625 -29.34375 L 107.234375 -25.875 L 105.890625 -24.546875 L 107.5 -21.875 L 111.234375 -16.796875 L 113.625 -13.609375 L 115.5 -11.46875 L 117.359375 -9.0625 L 118.15625 -8.53125 L 120.296875 -5.875 L 122.4375 -2.9375 L 124.828125 -1.59375 L 125.625 0.265625 L 125.90625 2.9375 L 122.171875 5.59375 L 120.296875 6.671875 L 117.359375 8.53125 L 114.421875 9.875 L 109.359375 13.0625 L 104.828125 14.40625 Z M 61.609375 -31.203125 L 66.15625 -31.203125 L 69.890625 -32.28125 L 72.546875 -34.140625 L 73.890625 -35.203125 L 75.484375 -36.8125 L 77.625 -39.484375 L 78.15625 -41.34375 L 79.484375 -44.546875 L 80.546875 -49.078125 L 81.625 -50.953125 L 82.421875 -54.953125 L 83.21875 -59.21875 L 83.75 -63.484375 L 84.828125 -68.015625 L 86.15625 -73.359375 L 87.21875 -76.546875 L 86.953125 -78.953125 L 88.296875 -84.828125 L 88.828125 -89.359375 L 89.625 -93.359375 L 89.625 -94.953125 L 90.421875 -96.828125 L 90.953125 -100.296875 L 90.6875 -102.421875 L 90.953125 -104.03125 L 92.015625 -108.03125 L 92.296875 -112.03125 L 92.5625 -114.15625 L 93.359375 -116.296875 L 93.625 -122.4375 L 93.359375 -124.03125 L 93.625 -126.171875 L 94.15625 -130.171875 L 93.890625 -132.03125 L 93.890625 -136.03125 L 94.15625 -140.828125 L 94.15625 -144.84375 L 94.421875 -146.703125 L 93.09375 -149.640625 L 92.5625 -151.234375 L 91.484375 -153.375 L 88.015625 -156.046875 L 86.15625 -156.84375 L 81.625 -157.375 L 76.8125 -156.3125 L 72.8125 -152.3125 L 72.015625 -149.90625 L 70.953125 -149.109375 L 69.890625 -145.109375 L 69.34375 -143.5 L 68.8125 -141.375 L 67.484375 -137.90625 L 65.890625 -131.5 L 64.8125 -128.828125 L 64.28125 -125.359375 L 63.484375 -121.890625 L 62.6875 -116.296875 L 62.15625 -114.96875 L 61.609375 -112.03125 L 59.484375 -103.5 L 58.6875 -98.6875 L 57.609375 -93.625 L 56.8125 -90.15625 L 56.546875 -85.890625 L 55.75 -82.421875 L 55.75 -81.09375 L 55.21875 -76.28125 L 54.140625 -72.28125 L 53.875 -70.15625 L 53.34375 -68.28125 L 53.078125 -66.15625 L 52.546875 -62.953125 L 52.546875 -61.078125 L 52.8125 -58.421875 L 52.28125 -55.21875 L 51.75 -51.75 L 51.484375 -49.34375 L 51.75 -47.75 L 52.28125 -43.75 L 53.078125 -39.484375 L 54.953125 -35.203125 L 56.8125 -33.875 L 59.484375 -32.28125 Z M 61.609375 -31.203125 "/></g></g></g><path fill="#1db954" d="M 77.507812 88.800781 L 48.640625 83.914062 L 35.957031 158.796875 L 64.824219 163.691406 Z M 77.507812 88.800781 " fill-opacity="1" fill-rule="evenodd"/><g clip-path="url(#a3659d4582)"><path fill="#1db954" d="M 112.421875 114.246094 L 212.421875 92.929688 L 208.246094 124.273438 L 268.40625 112.945312 L 274.496094 76.996094 L 303.359375 81.890625 L 286.113281 183.742188 L 257.242188 178.851562 L 263.191406 143.726562 L 176.140625 164 L 181.113281 132.867188 L 106.207031 150.945312 L 100.667969 183.628906 L 71.796875 178.742188 L 89.050781 76.890625 L 117.917969 81.773438 Z M 112.421875 114.246094 " fill-opacity="1" fill-rule="evenodd"/></g><path fill="#1db954" d="M 345.332031 120.242188 L 374.203125 125.125 L 367.234375 166.238281 L 338.371094 161.351562 Z M 345.332031 120.242188 " fill-opacity="1" fill-rule="evenodd"/><path fill="#1db954" d="M 310.0625 96.890625 L 297.378906 171.78125 L 326.25 176.667969 L 338.933594 101.785156 Z M 310.0625 96.890625 " fill-opacity="1" fill-rule="evenodd"/><path fill="#1db954" d="M 36.628906 99.253906 L 7.757812 94.371094 L 0.804688 135.492188 L 29.671875 140.375 Z M 36.628906 99.253906 " fill-opacity="1" fill-rule="evenodd"/></svg>